<?xml version="1.0" standalone="no"?>
<!DOCTYPE svg PUBLIC "-//W3C//DTD SVG 20010904//EN"
 "http://www.w3.org/TR/2001/REC-SVG-20010904/DTD/svg10.dtd">
<svg version="1.0" xmlns="http://www.w3.org/2000/svg"
 width="225.000000pt" height="225.000000pt" viewBox="0 0 225.000000 225.000000"
 preserveAspectRatio="xMidYMid meet">

<g transform="translate(0.000000,225.000000) scale(0.100000,-0.100000)"
fill="#000000" stroke="none">
<path d="M0 1125 l0 -1125 1125 0 1125 0 0 1125 0 1125 -1125 0 -1125 0 0
-1125z m1568 8 l2 -733 -25 0 -25 0 0 736 0 735 23 -3 22 -3 3 -732z m-373
416 c54 -15 120 -82 135 -138 21 -78 -9 -162 -70 -200 l-31 -18 31 -13 c97
-40 130 -187 64 -283 -19 -27 -49 -52 -83 -69 -54 -28 -57 -28 -243 -28 l-188
0 0 380 0 380 173 0 c95 0 190 -5 212 -11z"/>
<path d="M980 1340 l0 -80 68 0 c43 0 75 5 89 15 44 31 37 111 -13 134 -14 6
-52 11 -84 11 l-60 0 0 -80z"/>
<path d="M980 1028 l0 -88 76 0 c71 0 77 2 106 30 26 27 30 36 25 67 -10 57
-27 67 -122 73 l-85 5 0 -87z"/>
</g>
</svg>
